<svg height="494" width="720" xmlns="http://www.w3.org/2000/svg">
<rect height="494" fill="#555" width="720"></rect>
<text fill="#7f7" font-family="Courier New" font-size="12" xml:space="preserve">
<tspan x="10" y="26">└─┬ dockerode@2.4.3 </tspan>
<tspan x="10" y="42">  ├─┬ concat-stream@1.5.2 </tspan>
<tspan x="10" y="58">  │ ├── inherits@2.0.3 </tspan>
<tspan x="10" y="74">  │ ├─┬ readable-stream@2.0.6 </tspan>
<tspan x="10" y="90">  │ │ ├── core-util-is@1.0.2 </tspan>
<tspan x="10" y="106">  │ │ ├── isarray@1.0.0 </tspan>
<tspan x="10" y="122">  │ │ ├── process-nextick-args@1.0.7 </tspan>
<tspan x="10" y="138">  │ │ ├── string_decoder@0.10.31 </tspan>
<tspan x="10" y="154">  │ │ └── util-deprecate@1.0.2 </tspan>
<tspan x="10" y="170">  │ └── typedarray@0.0.6 </tspan>
<tspan x="10" y="186">  ├─┬ docker-modem@0.3.7 </tspan>
<tspan x="10" y="202">  │ ├─┬ debug@2.6.3 </tspan>
<tspan x="10" y="218">  │ │ └── ms@0.7.2 </tspan>
<tspan x="10" y="234">  │ ├─┬ JSONStream@0.10.0 </tspan>
<tspan x="10" y="250">  │ │ ├── jsonparse@0.0.5 </tspan>
<tspan x="10" y="266">  │ │ └── through@2.3.8 </tspan>
<tspan x="10" y="282">  │ ├─┬ readable-stream@1.0.34 </tspan>
<tspan x="10" y="298">  │ │ └── isarray@0.0.1 </tspan>
<tspan x="10" y="314">  │ └── split-ca@1.0.1 </tspan>
<tspan x="10" y="330">  └─┬ tar-fs@1.12.0 </tspan>
<tspan x="10" y="346">    ├─┬ mkdirp@0.5.1 </tspan>
<tspan x="10" y="362">    │ └── minimist@0.0.8 </tspan>
<tspan x="10" y="378">    ├─┬ pump@1.0.2 </tspan>
<tspan x="10" y="394">    │ ├── end-of-stream@1.4.0 </tspan>
<tspan x="10" y="410">    │ └─┬ once@1.4.0 </tspan>
<tspan x="10" y="426">    │   └── wrappy@1.0.2 </tspan>
<tspan x="10" y="442">    └─┬ tar-stream@1.5.2 </tspan>
<tspan x="10" y="458">      ├── bl@1.2.0 </tspan>
<tspan x="10" y="474">      └── xtend@4.0.1</tspan>
</text>
</svg>
